<svg xmlns="http://www.w3.org/2000/svg" width="135.826" height="126.147" viewBox="0 0 135.826 126.147"><defs><style>.a{fill:#333335;}.b{fill:#006a50;}</style></defs><g transform="translate(70.794 18.725)"><g transform="translate(0 22.584)"><rect class="a" width="9.509" height="26.266"/></g><g transform="translate(14.717 14.886)"><rect class="a" width="9.51" height="33.964"/></g><g transform="translate(29.435 3.112)"><rect class="a" width="9.51" height="45.738"/></g><g transform="translate(10.556 0)"><path class="a" d="M4774.834,3338.191l-2.961,2.961v-8.373l-8.373,8.373-2.091-2.091,8.373-8.373h-8.373l2.961-2.961h10.464Z" transform="translate(-4761.409 -3327.728)"/></g></g><g transform="translate(0 63.247)"><path class="b" d="M4380.163,3589.4l11.576-9.64-9.426-11.319-11.575,9.64a6,6,0,0,0-8.432-.757l-38.573,32.123a6,6,0,0,0-.771,8.444l9.4,11.291a6,6,0,0,0,8.444.771l38.573-32.123A6,6,0,0,0,4380.163,3589.4Z" transform="translate(-4321.573 -3568.443)"/></g><g transform="translate(47.116)"><path class="a" d="M4620.67,3315.2a44.355,44.355,0,1,1,31.364-12.991A44.065,44.065,0,0,1,4620.67,3315.2Zm0-78.353a34,34,0,1,0,34,34A34.036,34.036,0,0,0,4620.67,3236.846Z" transform="translate(-4576.315 -3226.488)"/></g></svg>