<svg xmlns="http://www.w3.org/2000/svg" width="121.273" height="131.551" viewBox="0 0 121.273 131.551"><defs><style>.a{fill:#006a50;}.b{fill:#333335;stroke-width:4px;}.b,.c{stroke:#fff;}.c,.e{fill:none;}.c{stroke-width:6px;}.d{stroke:none;}</style></defs><g transform="translate(-714.727 -2430.484)"><g transform="translate(714.727 2430.484)"><g transform="translate(22.212)"><path class="a" d="M4970.595,4264.3c-.025-1.71-1.906-3.065-4.212-3.036l-17.016.236c-2.3.035-4.146,1.443-4.125,3.151h0c.027,1.707,1.911,3.069,4.21,3.035l17.017-.236c2.3-.032,4.152-1.439,4.125-3.149Z" transform="translate(-4932.861 -4241.273)"/><path class="a" d="M4902.186,4185.761l-14.841-15.189s.081-1.021,2.78-1.741,11.892-1.413,14.341-.425a23.725,23.725,0,0,0,8.052,1.537c1.9-.086,6.482-1.508,7.833-1.7s5.942-.822,7.665-.218,8.268,3.8,7.479,5.517-12.608,11.934-12.608,11.934Z" transform="translate(-4887.344 -4167.77)"/></g><g transform="translate(0 29.047)"><path class="a" d="M5018.289,4574.314a8.028,8.028,0,0,1-2.243,4.534c-.1.1-.192.2-.291.3a0,0,0,0,1,0,0,6.464,6.464,0,0,1-.663.182v-5.611a5.064,5.064,0,0,0,2.57.626C5017.859,4574.347,5018.071,4574.336,5018.289,4574.314Z" transform="translate(-4965.559 -4515.955)"/><path class="a" d="M4984.74,4492.7v2.508l-1.95-1.88A4.865,4.865,0,0,1,4984.74,4492.7Z" transform="translate(-4940.167 -4452.261)"/><path class="a" d="M4859.239,4380.131a34.145,34.145,0,0,1,10.04-24.233q1.2-1.2,2.515-2.277l-.139-9.97a15.478,15.478,0,0,0-.233-2.515c-1.253-21.187-19.54-37.839-41.68-37.531-22.753.316-40.948,18.421-40.644,40.443.015,1.123.087,2.229.2,3.323l.552,39.947a9.684,9.684,0,0,0,3.447,18.784l76.026-1.052c.214,0,.423-.023.635-.041-.227-.216-.459-.428-.68-.65A34.139,34.139,0,0,1,4859.239,4380.131Zm-15.819-20.239a15.369,15.369,0,0,1-4.523,10.332,12.394,12.394,0,0,1-8.89,4.018c-3.873,0-6.567-1.084-8.009-3.223a7.517,7.517,0,0,1-1.249-3.261,28.716,28.716,0,0,1-.259-4.144v-12.076h-2.725l-3.766-4.989h6.739v-6.073c0-1.3-.5-1.559-1.311-1.559a1.023,1.023,0,0,0-.492.115,7.874,7.874,0,0,1-1,.449l-.813.306-1.8-5.053.757-.31a10.429,10.429,0,0,1,3.85-.866,5.385,5.385,0,0,1,4.758,2.229c.954,1.4,1.416,3.559,1.416,6.607v2.275l1.95,1.88h1l4.048,4.989h-7v15.143c.1,1.587.924,2.265,2.735,2.265a6.664,6.664,0,0,0,4.835-2.149,0,0,0,0,0,0,0c.1-.1.194-.2.291-.3a8.025,8.025,0,0,0,2.243-4.534c-.218.021-.43.032-.629.032a5.07,5.07,0,0,1-2.57-.626,4.189,4.189,0,0,1-.881-.676,5.022,5.022,0,0,1-1.3-3.7,5.189,5.189,0,0,1,5.494-5.68c3.24,0,7.1,1.479,7.1,8.526Z" transform="translate(-4783.475 -4303.6)"/></g></g><g class="b" transform="translate(780 2506)"><circle class="d" cx="28" cy="28" r="28"/><circle class="e" cx="28" cy="28" r="26"/></g><path class="c" d="M71.122,105.532l8.456,10.735L99.973,95.872" transform="translate(723.409 2429.523)"/></g></svg>