<svg xmlns="http://www.w3.org/2000/svg" width="141.65" height="139.112" viewBox="0 0 141.65 139.112"><defs><style>.a{fill:#006a50;}.b{fill:#333335;}.c{fill:#005d46;}.d{fill:#fff;}</style></defs><g transform="translate(-346.175 -2421.117)"><g transform="translate(338.416 2421.117)"><path class="a" d="M3618.377,3363.188a10.4,10.4,0,0,0-7.331,2.682c-1.95,1.811-2.939,4.481-2.939,7.935a9.386,9.386,0,0,0,2.432,6.911,8.752,8.752,0,0,0,6.449,2.434q.559,0,1.176-.059a15,15,0,0,1-4.195,8.473c-2.871,3.082-6.006,4.58-9.584,4.58-3.386,0-4.917-1.267-5.11-4.234v-28.3h13.087l-7.563-9.322h-5.524v-7.769c0-5.7-.866-9.738-2.649-12.349-1.889-2.764-4.881-4.165-8.892-4.165a19.473,19.473,0,0,0-7.191,1.621l-1.418.576,3.373,9.445,1.52-.57a15.334,15.334,0,0,0,1.871-.84,1.9,1.9,0,0,1,.92-.214c1.513,0,2.45.487,2.45,2.912v11.354h-12.594l7.036,9.322h5.1v22.569a53.9,53.9,0,0,0,.48,7.749,14.1,14.1,0,0,0,2.336,6.094c2.692,4,7.728,6.023,14.969,6.023,6.041,0,11.634-2.53,16.614-7.511a28.7,28.7,0,0,0,8.452-19.309l0-.1C3631.653,3365.953,3624.434,3363.188,3618.377,3363.188Z" transform="translate(-3521.736 -3330.004)"/></g><g transform="translate(829.53 2111.76)"><path class="b" d="M-408,405.1v31.929h10.238a2.468,2.468,0,0,1,.651.088l39.165,10.678a19.315,19.315,0,0,0,15.7-2.537l44.428-29.29a5.521,5.521,0,0,0,2.438-4.644v-.174a5.375,5.375,0,0,0-5.248-5.462,5.132,5.132,0,0,0-1.681.286l-24.562,8.485a10.229,10.229,0,0,1-9.462,6.551h-25.6a2.607,2.607,0,0,1-2.559-2.652,2.607,2.607,0,0,1,2.559-2.652h25.6a5.148,5.148,0,0,0,4.962-3.99v-.007a5.488,5.488,0,0,0,.157-1.3,5.217,5.217,0,0,0-5.119-5.311h-25.6a2.515,2.515,0,0,1-1.81-.777l-.259-.269a21.888,21.888,0,0,0-31.694,0l-.259.269a2.516,2.516,0,0,1-1.81.777Z" transform="translate(-46.323 0)"/><rect class="c" width="25.949" height="34.141" transform="translate(-457.405 439.607) rotate(-180)"/><circle class="d" cx="3.467" cy="3.467" r="3.467" transform="translate(-468.827 410.441)"/></g></g></svg>