<svg xmlns="http://www.w3.org/2000/svg" width="91.704" height="131.768" viewBox="0 0 91.704 131.768"><defs><style>.a,.f{fill:none;}.b{fill:#00583e;}.c{fill:#006a50;}.d,.e{fill:#333335;}.e{fill-rule:evenodd;}.f{stroke:#e50019;stroke-width:3.08px;}</style></defs><g transform="translate(-26.883)"><g transform="translate(26.883 0)"><path class="a" d="M5704.595,3240.81a3.719,3.719,0,1,0-3.719-3.719A3.719,3.719,0,0,0,5704.595,3240.81Z" transform="translate(-5658.743 -3231.184)"/><path class="b" d="M5516.521,3280.462a4.061,4.061,0,0,1,4.056-4.057h10.714v-5.795h-10.714a9.862,9.862,0,0,0-9.851,9.852v65.673h5.795Z" transform="translate(-5510.726 -3260.171)"/><path class="c" d="M5592.578,3270.61h-10.713v5.795h10.713a4.061,4.061,0,0,1,4.056,4.057v101.626a4.061,4.061,0,0,1-4.056,4.057h-72a4.061,4.061,0,0,1-4.056-4.057v-44.809h-5.795v44.809a9.862,9.862,0,0,0,9.851,9.852h72a9.862,9.862,0,0,0,9.852-9.852V3280.462A9.862,9.862,0,0,0,5592.578,3270.61Z" transform="translate(-5510.726 -3260.171)"/><path class="b" d="M5633.547,3240.473h33.667a2.318,2.318,0,0,0,2.317-2.318v-5.033a2.317,2.317,0,0,0-2.317-2.318h-9.975c.008-.142.021-.283.021-.428a6.88,6.88,0,0,0-13.76,0c0,.145.013.286.021.428h-9.976a2.318,2.318,0,0,0-2.317,2.318v5.033A2.318,2.318,0,0,0,5633.547,3240.473Zm16.834-14.788a3.719,3.719,0,1,1-3.719,3.719A3.719,3.719,0,0,1,5650.381,3225.685Z" transform="translate(-5604.529 -3223.497)"/></g><g transform="translate(46.999 28.451)"><rect class="d" width="9.669" height="21.797" transform="translate(0 27.517)"/><rect class="d" width="9.669" height="13.936" transform="translate(14.875 35.378)"/><rect class="d" width="9.668" height="31.088" transform="translate(29.749 18.226)"/><rect class="d" width="9.668" height="40.023" transform="translate(44.996 9.291)"/><path class="e" d="M5610.08,3426.974a2.605,2.605,0,1,1-2.6-2.5A2.553,2.553,0,0,1,5610.08,3426.974Z" transform="translate(-5604.13 -3408.392)"/><path class="e" d="M5685.6,3467.3a2.605,2.605,0,1,1-2.6-2.5A2.554,2.554,0,0,1,5685.6,3467.3Z" transform="translate(-5662.917 -3439.781)"/><path class="e" d="M5747.7,3381.814a2.605,2.605,0,1,1-2.6-2.5A2.555,2.555,0,0,1,5747.7,3381.814Z" transform="translate(-5711.254 -3373.239)"/><path class="e" d="M5821.543,3354.4a2.605,2.605,0,1,1-2.6-2.5A2.553,2.553,0,0,1,5821.543,3354.4Z" transform="translate(-5768.737 -3351.899)"/><line class="f" x2="16.733" y2="8.934" transform="translate(3.347 18.582)"/><line class="f" y1="18.94" x2="13.76" transform="translate(20.081 8.576)"/><line class="f" y1="6.075" x2="16.362" transform="translate(33.841 2.501)"/></g></g></svg>